<?xml version="1.0" standalone="no"?>
<!DOCTYPE svg PUBLIC "-//W3C//DTD SVG 20010904//EN"
 "http://www.w3.org/TR/2001/REC-SVG-20010904/DTD/svg10.dtd">
<svg version="1.0" xmlns="http://www.w3.org/2000/svg"
 width="100.000000pt" height="100.000000pt" viewBox="0 0 100.000000 100.000000"
 preserveAspectRatio="xMidYMid meet">
<metadata>
Created by potrace 1.14, written by Peter Selinger 2001-2017
</metadata>
<g transform="translate(0.000000,100.000000) scale(0.100000,-0.100000)"
fill="#000000" stroke="none">
<path d="M122 834 c-22 -15 -22 -18 -22 -260 0 -305 -12 -284 165 -284 125 0
125 0 125 -24 0 -28 -16 -43 -49 -48 -33 -4 -49 -31 -32 -52 20 -24 362 -24
382 0 17 21 1 48 -32 52 -27 4 -49 27 -49 54 0 14 8 18 40 18 22 0 40 5 40 10
0 6 -98 10 -273 10 -199 0 -276 3 -285 12 -7 7 -12 34 -12 60 l0 48 288 3 287
2 -287 3 -288 2 0 183 c0 129 4 187 12 195 17 17 719 17 736 0 7 -7 12 -43 12
-90 0 -45 4 -78 10 -78 6 0 10 33 10 80 0 129 28 120 -398 120 -307 0 -361 -2
-380 -16z m468 -569 c0 -32 33 -65 66 -65 16 0 24 -5 22 -12 -6 -16 -348 -19
-348 -3 0 6 37 13 82 16 65 4 72 6 30 7 -49 2 -52 3 -42 21 5 11 10 29 10 40
0 20 6 21 90 21 89 0 90 0 90 -25z"/>
<path d="M518 203 c7 -3 16 -2 19 1 4 3 -2 6 -13 5 -11 0 -14 -3 -6 -6z"/>
<path d="M488 803 c6 -2 18 -2 25 0 6 3 1 5 -13 5 -14 0 -19 -2 -12 -5z"/>
<path d="M142 693 l2 -88 3 83 4 82 349 0 349 0 4 -37 4 -38 1 43 2 42 -360 0
-360 0 2 -87z"/>
<path d="M807 621 c-22 -47 -25 -49 -43 -36 -10 8 -22 15 -25 15 -15 0 -17
-32 -5 -57 8 -16 21 -45 30 -67 9 -21 20 -36 23 -32 3 3 1 11 -4 18 -16 21
-42 107 -34 112 10 7 79 -64 82 -84 1 -8 -5 -32 -15 -52 -12 -28 -22 -38 -40
-38 -27 0 -45 33 -56 105 l-8 50 -1 -41 c0 -23 6 -58 14 -78 14 -32 14 -36 0
-36 -18 0 -18 2 0 -129 8 -62 19 -107 27 -112 16 -11 159 -11 175 -1 7 4 19
54 28 110 19 129 19 132 -4 132 -18 0 -18 2 -5 29 16 32 31 131 20 131 -4 0
-20 -7 -37 -15 -23 -12 -30 -13 -33 -3 -18 57 -41 110 -52 119 -11 9 -19 1
-37 -40z m64 -43 c17 -52 17 -53 -2 -71 -11 -11 -22 -17 -23 -16 -1 2 -14 20
-29 39 l-26 35 20 44 c23 53 33 47 60 -31z m53 -76 c-28 -38 -36 -52 -30 -52
3 0 20 19 37 43 l31 42 -7 -40 c-4 -22 -14 -52 -22 -67 -12 -26 -19 -28 -69
-28 l-55 0 23 42 c22 39 96 104 106 93 3 -3 -3 -18 -14 -33z m24 -134 c-3 -9
-37 -14 -111 -16 -91 -2 -107 0 -107 13 0 13 18 15 111 15 84 0 110 -3 107
-12z m-8 -38 c0 -6 -40 -10 -100 -10 -60 0 -100 4 -100 10 0 6 40 10 100 10
60 0 100 -4 100 -10z m-6 -72 c-11 -85 -14 -88 -99 -88 -84 0 -79 -5 -88 93
l-5 47 100 0 99 0 -7 -52z"/>
<path d="M833 585 c0 -27 2 -38 4 -22 2 15 2 37 0 50 -2 12 -4 0 -4 -28z"/>
<path d="M142 550 c0 -14 2 -19 5 -12 2 6 2 18 0 25 -3 6 -5 1 -5 -13z"/>
<path d="M141 483 l-1 -23 273 2 272 3 -267 2 c-243 3 -267 5 -271 21 -4 13
-5 11 -6 -5z"/>
<path d="M475 400 c-12 -20 6 -51 28 -48 31 4 31 52 0 56 -11 2 -24 -2 -28 -8z
m41 -11 c10 -17 -13 -36 -27 -22 -12 12 -4 33 11 33 5 0 12 -5 16 -11z"/>
</g>
</svg>
